<?xml version="1.0" encoding="UTF-8"?>
<svg width="1071px" height="229px" viewBox="0 0 1071 229" version="1.1" xmlns="http://www.w3.org/2000/svg" xmlns:xlink="http://www.w3.org/1999/xlink">
    <title>Group</title>
    <g id="Page-1" stroke="none" stroke-width="1" fill="none" fill-rule="evenodd">
        <g id="Ghost-Logo-Typeface-Copy" transform="translate(-161.000000, -149.000000)" fill="#111827" fill-rule="nonzero">
            <g id="Group" transform="translate(161.045977, 149.885274)">
                <path d="M434.889126,185.114726 C444.828162,185.114726 454.70181,183.611043 464.51007,180.603676 C474.318329,177.59631 482.949598,173.281393 490.403875,167.658925 L490.403875,167.658925 L490.403875,111.957267 L461.371427,111.957267 L461.371427,152.16445 C454.047926,156.087102 445.808988,158.048428 436.654613,158.048428 C428.023344,158.048428 420.340207,156.185168 413.605203,152.458649 C406.870198,148.732129 401.606432,143.534615 397.813905,136.866107 C394.021378,130.197599 392.125114,122.613805 392.125114,114.114726 C392.125114,105.484892 394.021378,97.8357203 397.813905,91.167212 C401.606432,84.4987038 406.902892,79.3338787 413.703285,75.6727369 C420.503678,72.0115951 428.284898,70.1810242 437.046943,70.1810242 C450.909283,70.1810242 462.744583,75.3458492 472.552843,85.6754993 L472.552843,85.6754993 L492.954023,66.84677 C486.284406,59.1322212 478.045468,53.2482433 468.237208,49.1948363 C458.428949,45.1414293 447.509086,43.1147258 435.477621,43.1147258 C421.092174,43.1147258 408.145271,46.1547811 396.636913,52.2348916 C385.128556,58.3150021 376.137651,66.7487038 369.6642,77.5359966 C363.190748,88.3232894 359.954023,100.516199 359.954023,114.114726 C359.954023,127.713253 363.190748,139.906162 369.6642,150.693455 C376.137651,161.480748 385.063167,169.91445 396.440748,175.99456 C407.818329,182.074671 420.634455,185.114726 434.889126,185.114726 Z M551.748415,183.114726 L551.748415,126.944726 L614.15963,126.944726 L614.15963,183.114726 L645.954023,183.114726 L645.954023,46.1147258 L614.15963,46.1147258 L614.15963,100.131869 L551.748415,100.131869 L551.748415,46.1147258 L519.954023,46.1147258 L519.954023,183.114726 L551.748415,183.114726 Z M744.954023,185.114726 C759.183788,185.114726 771.977521,182.041982 783.335224,175.896494 C794.692926,169.751006 803.635485,161.284615 810.1629,150.497323 C816.690315,139.71003 819.954023,127.582497 819.954023,114.114726 C819.954023,100.646954 816.690315,88.519422 810.1629,77.7321292 C803.635485,66.9448363 794.692926,58.4784459 783.335224,52.3329579 C771.977521,46.1874699 759.183788,43.1147258 744.954023,43.1147258 C730.724258,43.1147258 717.897887,46.1874699 706.47491,52.3329579 C695.051934,58.4784459 686.109375,66.9448363 679.647234,77.7321292 C673.185093,88.519422 669.954023,100.646954 669.954023,114.114726 C669.954023,127.582497 673.185093,139.71003 679.647234,150.497323 C686.109375,161.284615 695.051934,169.751006 706.47491,175.896494 C717.897887,182.041982 730.724258,185.114726 744.954023,185.114726 Z M744.954023,158.114726 C736.838345,158.114726 729.508056,156.248654 722.963155,152.516512 C716.418254,148.784369 711.280507,143.579012 707.549913,136.90044 C703.819319,130.221869 701.954023,122.626631 701.954023,114.114726 C701.954023,105.602821 703.819319,98.007583 707.549913,91.3290116 C711.280507,84.6504401 716.418254,79.445083 722.963155,75.7129401 C729.508056,71.9807973 736.838345,70.1147258 744.954023,70.1147258 C753.0697,70.1147258 760.399989,71.9807973 766.94489,75.7129401 C773.489791,79.445083 778.627539,84.6504401 782.358132,91.3290116 C786.088726,98.007583 787.954023,105.602821 787.954023,114.114726 C787.954023,122.626631 786.088726,130.221869 782.358132,136.90044 C778.627539,143.579012 773.489791,148.784369 766.94489,152.516512 C760.399989,156.248654 753.0697,158.114726 744.954023,158.114726 Z M888.778765,185.114726 C901.314847,185.114726 911.957459,183.218777 920.7066,179.426881 C929.455741,175.634984 936.017596,170.502847 940.392167,164.030472 C944.766737,157.558096 946.954023,150.399256 946.954023,142.553952 C946.954023,133.401098 944.570861,126.144192 939.804538,120.783234 C935.038215,115.422276 929.325157,111.499625 922.665363,109.015278 C916.005569,106.530932 907.452304,104.046586 897.005569,101.56224 C886.950586,99.3394036 879.474641,97.0838787 874.577734,94.7956651 C869.680827,92.5074514 867.232373,89.0097535 867.232373,84.3025712 C867.232373,79.5953888 869.354366,75.803492 873.598352,72.9268805 C877.842339,70.0502691 884.404194,68.6119634 893.283919,68.6119634 C905.950586,68.6119634 918.617253,72.2077277 931.283919,79.3992562 L931.283919,79.3992562 L941.077734,55.2749468 C934.809693,51.3522949 927.496978,48.3449284 919.13959,46.2528474 C910.782201,44.1607664 902.228937,43.1147258 893.479796,43.1147258 C880.943713,43.1147258 870.333748,45.0106743 861.649899,48.8025712 C852.96605,52.594468 846.469486,57.7266043 842.160208,64.19898 C837.85093,70.6713557 835.696291,77.895573 835.696291,85.8716319 C835.696291,95.0244864 838.079452,102.34677 842.845775,107.838483 C847.612098,113.330195 853.325157,117.318225 859.98495,119.802571 C866.644744,122.286917 875.198009,124.771264 885.644744,127.25561 C892.435122,128.824671 897.82172,130.262976 901.804538,131.570527 C905.787356,132.878078 909.051961,134.610582 911.598352,136.768041 C914.144744,138.925499 915.41794,141.638667 915.41794,144.907544 C915.41794,149.353216 913.263301,152.916291 908.954023,155.59677 C904.644744,158.277249 897.98495,159.617488 888.974641,159.617488 C880.878421,159.617488 872.782201,158.309938 864.685981,155.694836 C856.589761,153.079735 849.603507,149.614726 843.727218,145.299809 L843.727218,145.299809 L832.954023,169.227986 C839.09148,173.935168 847.220346,177.759753 857.340621,180.701742 C867.460895,183.643731 877.940277,185.114726 888.778765,185.114726 Z M1026.88845,183.114726 L1026.88845,71.9490116 L1070.95402,71.9490116 L1070.95402,46.1147258 L950.954023,46.1147258 L950.954023,71.9490116 L995.019596,71.9490116 L995.019596,183.114726 L1026.88845,183.114726 Z" id="GHOST"></path>
                <path d="M137.482191,2.02839689 C139.740527,3.33878974 141.617707,5.21596928 142.9281,7.47430588 L257.882122,205.586558 C262.039815,212.751943 259.601598,221.931111 252.436213,226.088803 C250.14924,227.415812 247.552133,228.114726 244.908045,228.114726 L15,228.114726 C6.71572875,228.114726 1.98951966e-12,221.398997 1.98951966e-12,213.114726 C1.98951966e-12,210.470638 0.698913614,207.873531 2.0259227,205.586558 L116.979945,7.47430588 C121.137638,0.308920845 130.316806,-2.12929566 137.482191,2.02839689 Z" id="Triangle"></path>
            </g>
        </g>
    </g>
</svg>