<?xml version="1.0" encoding="UTF-8"?>
<svg width="1199px" height="243px" viewBox="0 0 1199 243" version="1.1" xmlns="http://www.w3.org/2000/svg" xmlns:xlink="http://www.w3.org/1999/xlink">
    <title>Group</title>
    <g id="Page-1" stroke="none" stroke-width="1" fill="none" fill-rule="evenodd">
        <g id="Ghost-Logo-Typeface-Copy-2" transform="translate(-150.000000, -135.000000)" fill="#F3F4F6">
            <g id="Group" transform="translate(150.000000, 135.000000)">
                <path d="M387.625,215 C400.291667,215 412.875,213.083333 425.375,209.25 C437.875,205.416667 448.875,199.916667 458.375,192.75 L458.375,192.75 L458.375,121.75 L421.375,121.75 L421.375,173 C412.041667,178 401.541667,180.5 389.875,180.5 C378.875,180.5 369.083333,178.125 360.5,173.375 C351.916667,168.625 345.208333,162 340.375,153.5 C335.541667,145 333.125,135.333333 333.125,124.5 C333.125,113.5 335.541667,103.75 340.375,95.25 C345.208333,86.75 351.958333,80.1666667 360.625,75.5 C369.291667,70.8333333 379.208333,68.5 390.375,68.5 C408.041667,68.5 423.125,75.0833333 435.625,88.25 L435.625,88.25 L461.625,64.25 C453.125,54.4166667 442.625,46.9166667 430.125,41.75 C417.625,36.5833333 403.708333,34 388.375,34 C370.041667,34 353.541667,37.875 338.875,45.625 C324.208333,53.375 312.75,64.125 304.5,77.875 C296.25,91.625 292.125,107.166667 292.125,124.5 C292.125,141.833333 296.25,157.375 304.5,171.125 C312.75,184.875 324.125,195.625 338.625,203.375 C353.125,211.125 369.458333,215 387.625,215 Z M536.375,212 L536.375,140.25 L615.875,140.25 L615.875,212 L656.375,212 L656.375,37 L615.875,37 L615.875,106 L536.375,106 L536.375,37 L495.875,37 L495.875,212 L536.375,212 Z M782.625,215 C800.791667,215 817.125,211.083333 831.625,203.25 C846.125,195.416667 857.541667,184.625 865.875,170.875 C874.208333,157.125 878.375,141.666667 878.375,124.5 C878.375,107.333333 874.208333,91.875 865.875,78.125 C857.541667,64.375 846.125,53.5833333 831.625,45.75 C817.125,37.9166667 800.791667,34 782.625,34 C764.458333,34 748.083333,37.9166667 733.5,45.75 C718.916667,53.5833333 707.5,64.375 699.25,78.125 C691,91.875 686.875,107.333333 686.875,124.5 C686.875,141.666667 691,157.125 699.25,170.875 C707.5,184.625 718.916667,195.416667 733.5,203.25 C748.083333,211.083333 764.458333,215 782.625,215 Z M782.625,180.5 C772.291667,180.5 762.958333,178.125 754.625,173.375 C746.291667,168.625 739.75,162 735,153.5 C730.25,145 727.875,135.333333 727.875,124.5 C727.875,113.666667 730.25,104 735,95.5 C739.75,87 746.291667,80.375 754.625,75.625 C762.958333,70.875 772.291667,68.5 782.625,68.5 C792.958333,68.5 802.291667,70.875 810.625,75.625 C818.958333,80.375 825.5,87 830.25,95.5 C835,104 837.375,113.666667 837.375,124.5 C837.375,135.333333 835,145 830.25,153.5 C825.5,162 818.958333,168.625 810.625,173.375 C802.291667,178.125 792.958333,180.5 782.625,180.5 Z M966.375,215 C982.375,215 995.958333,212.583333 1007.125,207.75 C1018.29167,202.916667 1026.66667,196.375 1032.25,188.125 C1037.83333,179.875 1040.625,170.75 1040.625,160.75 C1040.625,149.083333 1037.58333,139.833333 1031.5,133 C1025.41667,126.166667 1018.125,121.166667 1009.625,118 C1001.125,114.833333 990.208333,111.666667 976.875,108.5 C964.041667,105.666667 954.5,102.791667 948.25,99.875 C942,96.9583333 938.875,92.5 938.875,86.5 C938.875,80.5 941.583333,75.6666667 947,72 C952.416667,68.3333333 960.791667,66.5 972.125,66.5 C988.291667,66.5 1004.45833,71.0833333 1020.625,80.25 L1020.625,80.25 L1033.125,49.5 C1025.125,44.5 1015.79167,40.6666667 1005.125,38 C994.458333,35.3333333 983.541667,34 972.375,34 C956.375,34 942.833333,36.4166667 931.75,41.25 C920.666667,46.0833333 912.375,52.625 906.875,60.875 C901.375,69.125 898.625,78.3333333 898.625,88.5 C898.625,100.166667 901.666667,109.5 907.75,116.5 C913.833333,123.5 921.125,128.583333 929.625,131.75 C938.125,134.916667 949.041667,138.083333 962.375,141.25 C971.041667,143.25 977.916667,145.083333 983,146.75 C988.083333,148.416667 992.25,150.625 995.5,153.375 C998.75,156.125 1000.375,159.583333 1000.375,163.75 C1000.375,169.416667 997.625,173.958333 992.125,177.375 C986.625,180.791667 978.125,182.5 966.625,182.5 C956.291667,182.5 945.958333,180.833333 935.625,177.5 C925.291667,174.166667 916.375,169.75 908.875,164.25 L908.875,164.25 L895.125,194.75 C902.958333,200.75 913.333333,205.625 926.25,209.375 C939.166667,213.125 952.541667,215 966.375,215 Z M1142.625,212 L1142.625,70 L1198.625,70 L1198.625,37 L1046.125,37 L1046.125,70 L1102.125,70 L1102.125,212 L1142.625,212 Z" id="GHOST" fill-rule="nonzero"></path>
                <path d="M141,35.865298 L250.744827,225 L31.2551729,225 L141,35.865298 Z" id="Triangle" stroke="#F3F4F6" stroke-width="36"></path>
            </g>
        </g>
    </g>
</svg>